<svg width="64" height="89" viewBox="0 0 64 89" fill="none" xmlns="http://www.w3.org/2000/svg">
<path d="M8.67634 2.23176C8.67634 2.23176 11.2918 20.6202 42.6594 34.792C57.7521 41.6138 67.2555 58.6146 58.1283 73.3057C51.921 83.2967 42.3907 88.6503 29.403 85.9735C16.5048 83.3235 0.328369 70.4051 15.3314 50.0023C15.3314 50.0023 -9.10342 22.0257 8.6853 2.24071L8.67634 2.23176Z" fill="white"/>
<path d="M7.00994 0.736524C7.59215 0.0919442 8.48786 -0.149773 9.31191 0.0919441C10.1449 0.342614 10.754 1.04986 10.8883 1.90035C10.9152 2.07045 13.9158 19.3488 43.5816 32.7507C52.9328 36.9763 60.1163 44.7649 62.7945 53.5831C64.989 60.8078 64.0306 68.0325 60.0268 74.4783C54.1151 83.9948 45.8477 88.8918 35.8785 88.8918C33.6482 88.8918 31.3373 88.6501 28.9458 88.1577C21.6368 86.6537 11.8557 81.6492 8.32664 72.4729C6.48148 67.6833 5.79179 59.9931 12.5185 50.0827C7.78921 44.004 -9.5427 19.1429 7.00994 0.736524ZM12.5096 70.8704C15.2057 77.8802 23.1595 82.4013 29.8504 83.7799C40.6437 86.0002 49.2425 82.4639 55.4408 73.3055C59.5252 63.5473 53.3179 59.5455 50.4338 58.2653C45.2566 55.9824 38.7985 56.7881 37.4012 59.8947C36.5324 61.8194 36.3801 63.4846 36.9534 64.8364C37.867 67.0298 40.4108 67.9877 40.4198 67.9877C41.5842 68.3995 42.1933 69.6797 41.7812 70.8436C41.3692 72.0074 40.0884 72.6162 38.9239 72.2044C38.7448 72.1417 34.5529 70.6198 32.8511 66.618C31.7583 64.0576 31.9195 61.1749 33.3258 58.0504C36.0398 52.0254 45.4805 51.166 52.252 54.1651C55.1362 55.4363 57.7875 57.5043 59.4625 60.3333C59.3908 58.5249 59.0863 56.6986 58.5309 54.8723C56.22 47.2716 49.9501 40.5214 41.7544 36.8151C18.6631 26.4123 10.5928 13.6818 7.83399 7.04804C-1.36491 21.7928 10.7809 40.3513 15.3758 46.4659C17.5793 44.2367 20.3649 42.6611 23.9477 41.5868C25.1301 41.2376 26.3841 41.9091 26.7334 43.0908C27.0917 44.2725 26.4109 45.5259 25.2286 45.875C21.5025 46.9852 19.0124 48.6593 17.1493 51.2913C17.1493 51.2913 17.1493 51.2913 17.1404 51.3003C17.1404 51.3003 17.1404 51.3182 17.1225 51.3271C11.8378 58.516 10.2793 65.0961 12.5006 70.8704H12.5096Z" fill="#E30613"/>
</svg>
