<?xml version="1.0" encoding="UTF-8"?>
<svg id="Layer_2" data-name="Layer 2" xmlns="http://www.w3.org/2000/svg" viewBox="0 0 154.89 233.03">
  <defs>
    <style>
      .cls-1 {
        fill: #ffa5aa;
      }

      .cls-2 {
        fill: none;
        stroke: #000;
        stroke-linecap: round;
        stroke-linejoin: round;
        stroke-width: 6px;
      }

      .cls-3 {
        fill: #c991fa;
      }

      .cls-4 {
        fill: #ff9033;
      }
    </style>
  </defs>
  <g id="Layer_2-2" data-name="Layer 2">
    <path class="cls-4" d="M154.89,150.72c0,62.96-34.67,82.3-77.44,82.3S0,219.03,0,150.72C0,102.83,27.44,64,77.44,64s77.44,38.83,77.44,86.72Z"/>
    <ellipse cx="55.72" cy="123.49" rx="4.02" ry="5.35"/>
    <ellipse cx="99.17" cy="123.49" rx="3.92" ry="5.35"/>
    <path class="cls-2" d="M63.89,148.15s11.69,8.2,27.12,0"/>
    <ellipse class="cls-3" cx="77.44" cy="83.73" rx="71.68" ry="20.87"/>
    <path class="cls-3" d="M135.34,77.26h0L82.64,2.56c-2.41-3.42-7.97-3.42-10.38,0L19.55,77.26h0c-.81,1.03-1.23,2.1-1.23,3.2,0,8.67,26.47,15.7,59.13,15.7s59.13-7.03,59.13-15.7c0-1.1-.43-2.17-1.23-3.2Z"/>
    <path class="cls-1" d="M34.07,56.79l-8.63,12.27s-2.56,16.05,52.06,16.07c57.53.02,52.06-16.31,52.06-16.31l-8.66-12.04s2.47,12.14-43.41,12.27c-43.11.13-43.41-12.27-43.41-12.27Z"/>
  </g>
</svg>