<svg width="64" height="89" viewBox="0 0 64 89" fill="none" xmlns="http://www.w3.org/2000/svg">
<path d="M55.2683 2.23176C55.2683 2.23176 52.6528 20.6202 21.2852 34.792C6.19257 41.6138 -3.31087 58.6146 5.81637 73.3057C12.0236 83.2967 21.5539 88.6503 34.5416 85.9735C47.4398 83.3235 63.6163 70.4051 48.6132 50.0023C48.6132 50.0023 73.048 22.0257 55.2593 2.24071L55.2683 2.23176Z" fill="white"/>
<path d="M56.9347 0.736524C56.3525 0.0919441 55.4568 -0.149773 54.6327 0.0919441C53.7997 0.342614 53.1906 1.04986 53.0563 1.90035C53.0294 2.07045 50.0288 19.3488 20.363 32.7507C11.0118 36.9763 3.82829 44.7649 1.15013 53.5831C-1.04435 60.8078 -0.085947 68.0325 3.91786 74.4783C9.82951 83.9948 18.0969 88.8918 28.0661 88.8918C30.2964 88.8918 32.6073 88.6501 34.9988 88.1577C42.3078 86.6537 52.0889 81.6492 55.618 72.4729C57.4631 67.6833 58.1528 59.9931 51.4261 50.0827C56.1554 44.004 73.4873 19.1429 56.9347 0.736524ZM51.435 70.8704C48.739 77.8802 40.7851 82.4013 34.0942 83.7799C23.3009 86.0002 14.7022 82.4639 8.50387 73.3055C4.41945 63.5473 10.6267 59.5455 13.5109 58.2653C18.688 55.9824 25.1461 56.7881 26.5434 59.8947C27.4122 61.8194 27.5645 63.4846 26.9912 64.8364C26.0776 67.0298 23.5338 67.9877 23.5249 67.9877C22.3604 68.3995 21.7514 69.6797 22.1634 70.8436C22.5754 72.0074 23.8563 72.6162 25.0207 72.2044C25.1998 72.1417 29.3917 70.6198 31.0936 66.618C32.1863 64.0576 32.0251 61.1749 30.6188 58.0504C27.9049 52.0254 18.4641 51.166 11.6926 54.1651C8.80841 55.4363 6.15712 57.5043 4.48215 60.3333C4.55381 58.5249 4.85835 56.6986 5.41369 54.8723C7.72461 47.2716 13.9945 40.5214 22.1903 36.8151C45.2815 26.4123 53.3519 13.6818 56.1106 7.04804C65.3095 21.7928 53.1638 40.3513 48.5688 46.4659C46.3653 44.2367 43.5797 42.6611 39.9969 41.5868C38.8145 41.2376 37.5606 41.9091 37.2112 43.0908C36.853 44.2725 37.5337 45.5259 38.716 45.875C42.4422 46.9852 44.9322 48.6593 46.7953 51.2913C46.7953 51.2913 46.7953 51.2913 46.8042 51.3003C46.8042 51.3003 46.8042 51.3182 46.8222 51.3271C52.1068 58.516 53.6653 65.0961 51.444 70.8704H51.435Z" fill="#E30613"/>
</svg>
